<?xml version="1.0" encoding="utf-8"?>
<!-- Generator: Adobe Illustrator 27.4.0, SVG Export Plug-In . SVG Version: 6.00 Build 0)  -->
<svg version="1.1" id="레이어_2_00000039104447609848009300000003730355716835891135_"
	 xmlns="http://www.w3.org/2000/svg" xmlns:xlink="http://www.w3.org/1999/xlink" x="0px" y="0px" viewBox="0 0 30.9 30.9"
	 style="enable-background:new 0 0 30.9 30.9;" xml:space="preserve">
<style type="text/css">
	.st0{fill:#FF7C3B;}
	.st1{fill:#FFFFFF;}
</style>
<g transform="translate(1 1)">
	<g transform="translate(0 0)">
		<path class="st0" d="M14.5,29.9c-2.1,0-4.1-0.4-6-1.2c-1.9-0.8-3.5-1.9-4.9-3.3c-1.4-1.4-2.5-3-3.3-4.9c-0.8-2-1.3-4-1.3-6.1
			s0.4-4.1,1.2-6C1,6.6,2.1,5,3.5,3.6c1.4-1.4,3-2.5,4.9-3.3c2-0.8,4-1.3,6.1-1.3s4.1,0.4,6,1.2c1.9,0.8,3.5,1.9,4.9,3.3
			c1.4,1.4,2.5,3,3.3,4.9c0.8,1.9,1.2,3.9,1.2,6s-0.4,4.1-1.2,6c-0.8,1.9-1.9,3.5-3.3,4.9c-1.4,1.4-3,2.5-4.9,3.3
			C18.5,29.5,16.6,29.9,14.5,29.9z"/>
	</g>
	<g transform="translate(5.748 5.748)">
		<g transform="translate(12.915 16.034)">
			<path class="st1" d="M1.6-1.2h-12.7c-3,0-4.1-7.6-4.4-10.9c0-0.3,0.1-0.5,0.2-0.8c0.2-0.1,0.5-0.2,0.7-0.2H2.1
				c0.5,0,0.9,0.4,0.9,0.9s-0.4,0.9-0.9,0.9h-15.7C-13-6.6-11.8-3-11.1-3H1.4c0.3-0.2,1.9-1.6,3-8.2c0-0.5,0.3-2.5,1.9-3.8
				c1.1-0.8,2.5-1,4.2-0.7c0.5,0.1,0.8,0.7,0.7,1.1c-0.1,0.5-0.7,0.8-1.1,0.7C9-14.2,8-14.1,7.5-13.6c-1,0.8-1.1,2.4-1.1,2.4v0.1
				C4.9-2.7,2.6-1.5,2-1.3C1.8-1.2,1.7-1.2,1.6-1.2z"/>
			<path class="st1" d="M-8.9,4.9c-1.6,0-2.8-1.2-2.8-2.8s1.2-2.8,2.8-2.8s2.8,1.2,2.8,2.8S-7.4,4.9-8.9,4.9z M-8.9,1.1
				c-0.6,0-1,0.5-1,1c0,0.6,0.5,1,1,1s1-0.5,1-1S-8.4,1.1-8.9,1.1z"/>
			<path class="st1" d="M-1.3,4.9c-1.6,0-2.8-1.2-2.8-2.8s1.2-2.8,2.8-2.8s2.8,1.2,2.8,2.8C1.5,3.7,0.3,4.9-1.3,4.9z M-1.3,1.1
				c-0.6,0-1,0.5-1,1c0,0.6,0.5,1,1,1s0.9-0.5,0.9-1C-0.3,1.6-0.7,1.1-1.3,1.1z"/>
			<path class="st1" d="M1.3-7.8h-12.2c-0.4,0-0.9-0.4-0.9-0.9s0.4-1,0.9-1H1.2c0.5,0,0.9,0.4,0.9,0.9S1.8-7.8,1.3-7.8z"/>
			<path class="st1" d="M-0.2-4.3h-9c-0.5,0-0.9-0.4-0.9-0.9s0.4-0.9,0.9-0.9h9.1c0.5,0,0.9,0.4,0.9,0.9C0.7-4.8,0.3-4.3-0.2-4.3z"
				/>
		</g>
	</g>
</g>
</svg>
