<?xml version="1.0" encoding="utf-8"?>
<!-- Generator: Adobe Illustrator 27.4.0, SVG Export Plug-In . SVG Version: 6.00 Build 0)  -->
<svg version="1.1" id="레이어_1" xmlns="http://www.w3.org/2000/svg" xmlns:xlink="http://www.w3.org/1999/xlink" x="0px"
	 y="0px" viewBox="0 0 73.67 78" style="enable-background:new 0 0 73.67 78;" xml:space="preserve">
<style type="text/css">
	.st0{display:none;fill:none;stroke:#000000;stroke-width:3;stroke-linecap:round;stroke-linejoin:round;stroke-miterlimit:10;}
	.st1{display:none;}
	.st2{display:inline;}
</style>
<polyline class="st0" points="88.08,10.58 111.08,35.81 88.08,59.69 "/>
<g class="st1">
	<path class="st2" d="M48.33,65.06c-0.41,0-0.81-0.16-1.11-0.49l-23-25.22c-0.53-0.58-0.52-1.48,0.03-2.05l23-23.89
		c0.58-0.6,1.52-0.61,2.12-0.04s0.61,1.52,0.04,2.12L27.39,38.36l22.05,24.18c0.56,0.61,0.51,1.56-0.1,2.12
		C49.06,64.93,48.69,65.06,48.33,65.06z"/>
</g>
<g>
	<path d="M25.33,12.94c0.41,0,0.81,0.16,1.11,0.49l23,25.22c0.53,0.58,0.52,1.48-0.03,2.05l-23,23.89c-0.58,0.6-1.52,0.61-2.12,0.04
		s-0.61-1.52-0.04-2.12l22.03-22.88L24.22,15.46c-0.56-0.61-0.51-1.56,0.1-2.12C24.61,13.07,24.97,12.94,25.33,12.94z"/>
</g>
</svg>
